<mxfile host="app.diagrams.net" modified="2023-05-22T14:53:33.801Z" agent="Mozilla/5.0 (Windows NT 10.0; Win64; x64) AppleWebKit/537.36 (KHTML, like Gecko) Chrome/113.0.0.0 Safari/537.36" etag="E4ZK1DWeC_lPkUkvINW4" version="21.3.2" type="github">
  <diagram id="C5RBs43oDa-KdzZeNtuy" name="Page-1">
    <mxGraphModel dx="1434" dy="756" grid="1" gridSize="10" guides="1" tooltips="1" connect="1" arrows="1" fold="1" page="1" pageScale="1" pageWidth="827" pageHeight="1169" math="0" shadow="0">
      <root>
        <mxCell id="WIyWlLk6GJQsqaUBKTNV-0" />
        <mxCell id="WIyWlLk6GJQsqaUBKTNV-1" parent="WIyWlLk6GJQsqaUBKTNV-0" />
        <mxCell id="gGzK5oWEuJAgpFDLgVJi-0" value="«abstract»&lt;br&gt;&lt;div style=&quot;padding: 0px 0px 0px 2px;&quot;&gt;&lt;div style=&quot;font-family: &amp;quot;Courier New&amp;quot;; font-size: 10pt;&quot;&gt;&lt;p style=&quot;margin: 0px;&quot;&gt;AbstractJob&lt;/p&gt;&lt;/div&gt;&lt;/div&gt;" style="html=1;whiteSpace=wrap;" vertex="1" parent="WIyWlLk6GJQsqaUBKTNV-1">
          <mxGeometry x="304" y="160" width="110" height="50" as="geometry" />
        </mxCell>
        <mxCell id="gGzK5oWEuJAgpFDLgVJi-2" value="«class»&lt;br&gt;&lt;div style=&quot;padding: 0px 0px 0px 2px;&quot;&gt;&lt;div style=&quot;font-family: &amp;quot;Courier New&amp;quot;; font-size: 10pt;&quot;&gt;&lt;p style=&quot;margin: 0px;&quot;&gt;SimpleJob&lt;/p&gt;&lt;/div&gt;&lt;/div&gt;" style="html=1;whiteSpace=wrap;" vertex="1" parent="WIyWlLk6GJQsqaUBKTNV-1">
          <mxGeometry x="229" y="290" width="110" height="50" as="geometry" />
        </mxCell>
        <mxCell id="gGzK5oWEuJAgpFDLgVJi-3" value="" style="endArrow=block;dashed=1;endFill=0;endSize=12;html=1;rounded=0;exitX=0.5;exitY=0;exitDx=0;exitDy=0;" edge="1" parent="WIyWlLk6GJQsqaUBKTNV-1" source="gGzK5oWEuJAgpFDLgVJi-0" target="gGzK5oWEuJAgpFDLgVJi-4">
          <mxGeometry width="160" relative="1" as="geometry">
            <mxPoint x="340" y="280" as="sourcePoint" />
            <mxPoint x="340" y="180" as="targetPoint" />
          </mxGeometry>
        </mxCell>
        <mxCell id="gGzK5oWEuJAgpFDLgVJi-4" value="«interface»&lt;br&gt;&lt;b&gt;Job&lt;/b&gt;" style="html=1;whiteSpace=wrap;" vertex="1" parent="WIyWlLk6GJQsqaUBKTNV-1">
          <mxGeometry x="304" y="60" width="110" height="50" as="geometry" />
        </mxCell>
        <mxCell id="gGzK5oWEuJAgpFDLgVJi-5" value="«class»&lt;br&gt;&lt;div style=&quot;padding: 0px 0px 0px 2px;&quot;&gt;&lt;div style=&quot;font-family: &amp;quot;Courier New&amp;quot;; font-size: 10pt;&quot;&gt;&lt;p style=&quot;margin: 0px;&quot;&gt;FlowJob&lt;/p&gt;&lt;/div&gt;&lt;/div&gt;" style="html=1;whiteSpace=wrap;" vertex="1" parent="WIyWlLk6GJQsqaUBKTNV-1">
          <mxGeometry x="379" y="290" width="110" height="50" as="geometry" />
        </mxCell>
        <mxCell id="gGzK5oWEuJAgpFDLgVJi-6" value="" style="endArrow=block;endSize=10;endFill=0;shadow=0;strokeWidth=1;rounded=0;edgeStyle=elbowEdgeStyle;elbow=vertical;" edge="1" parent="WIyWlLk6GJQsqaUBKTNV-1" source="gGzK5oWEuJAgpFDLgVJi-5" target="gGzK5oWEuJAgpFDLgVJi-0">
          <mxGeometry width="160" relative="1" as="geometry">
            <mxPoint x="469" y="312" as="sourcePoint" />
            <mxPoint x="359" y="210" as="targetPoint" />
          </mxGeometry>
        </mxCell>
        <mxCell id="gGzK5oWEuJAgpFDLgVJi-8" value="" style="endArrow=block;endSize=10;endFill=0;shadow=0;strokeWidth=1;rounded=0;edgeStyle=elbowEdgeStyle;elbow=vertical;" edge="1" parent="WIyWlLk6GJQsqaUBKTNV-1" source="gGzK5oWEuJAgpFDLgVJi-2" target="gGzK5oWEuJAgpFDLgVJi-0">
          <mxGeometry width="160" relative="1" as="geometry">
            <mxPoint x="435" y="290" as="sourcePoint" />
            <mxPoint x="360" y="210" as="targetPoint" />
          </mxGeometry>
        </mxCell>
        <mxCell id="gGzK5oWEuJAgpFDLgVJi-9" value="«interface»&lt;br&gt;&lt;b&gt;BeanNameAware&lt;/b&gt;" style="html=1;whiteSpace=wrap;" vertex="1" parent="WIyWlLk6GJQsqaUBKTNV-1">
          <mxGeometry x="150" y="60" width="110" height="50" as="geometry" />
        </mxCell>
        <mxCell id="gGzK5oWEuJAgpFDLgVJi-10" value="«interface»&lt;br&gt;&lt;b&gt;StepLocator&lt;/b&gt;" style="html=1;whiteSpace=wrap;" vertex="1" parent="WIyWlLk6GJQsqaUBKTNV-1">
          <mxGeometry x="470" y="60" width="110" height="50" as="geometry" />
        </mxCell>
        <mxCell id="gGzK5oWEuJAgpFDLgVJi-11" value="" style="endArrow=block;dashed=1;endFill=0;endSize=12;html=1;rounded=0;entryX=0.5;entryY=1;entryDx=0;entryDy=0;" edge="1" parent="WIyWlLk6GJQsqaUBKTNV-1" target="gGzK5oWEuJAgpFDLgVJi-10">
          <mxGeometry width="160" relative="1" as="geometry">
            <mxPoint x="360" y="140" as="sourcePoint" />
            <mxPoint x="369" y="120" as="targetPoint" />
            <Array as="points">
              <mxPoint x="525" y="140" />
            </Array>
          </mxGeometry>
        </mxCell>
        <mxCell id="gGzK5oWEuJAgpFDLgVJi-12" value="" style="endArrow=block;dashed=1;endFill=0;endSize=12;html=1;rounded=0;entryX=0.5;entryY=1;entryDx=0;entryDy=0;" edge="1" parent="WIyWlLk6GJQsqaUBKTNV-1" target="gGzK5oWEuJAgpFDLgVJi-9">
          <mxGeometry width="160" relative="1" as="geometry">
            <mxPoint x="360" y="140" as="sourcePoint" />
            <mxPoint x="535" y="120" as="targetPoint" />
            <Array as="points">
              <mxPoint x="205" y="140" />
            </Array>
          </mxGeometry>
        </mxCell>
      </root>
    </mxGraphModel>
  </diagram>
</mxfile>
